# xmcd
#
# Track frame offsets:
#	150
#	13835
#	29902
#	45260
#	58750
#	71457
#	86105
#	101440
#	116152
#	132280
#	144487
#	162512
#	175160
#	190402
#	205625
#	220470
#
# Disc length: 3125 seconds
#
# Revision: 0
# Processed by: cddbd v1.5.1PL0 Copyright (c) Steve Scherf et al.
# Submitted via: dBpowerAMP V4.0
#
DISCID=ef0c3310
DTITLE=Jeanne Pruett - Greatest Hits
DYEAR=1900
DGENRE=Country
TTITLE0=Hold On To My Unchanging Love
TTITLE1=Love Me
TTITLE2=Satin Sheets
TTITLE3=I'm Your Woman
TTITLE4=You Don't Need To Move A Mountain
TTITLE5=Welcome To The Sunshine (Sweet Baby Jane)
TTITLE6=Just Like Your Daddy
TTITLE7=Honey On His Hands
TTITLE8=A Poor Man's Woman
TTITLE9=I'm Living A Lie
TTITLE10=Please Sing Satin Sheets For Me
TTITLE11=Back To Back
TTITLE12=Temporarily Yours
TTITLE13=It's Too Late
TTITLE14=Love Me (with Marty Robbins)
TTITLE15=Walking Piece Of Heaven (with Marty Robbins)
EXTD=
EXTT0=
EXTT1=
EXTT2=
EXTT3=
EXTT4=
EXTT5=
EXTT6=
EXTT7=
EXTT8=
EXTT9=
EXTT10=
EXTT11=
EXTT12=
EXTT13=
EXTT14=
EXTT15=
PLAYORDER=
